<svg width="25" height="24" viewBox="0 0 25 24" fill="none" xmlns="http://www.w3.org/2000/svg">
<g clip-path="url(#clip0_802_838)">
<path d="M24.0109 7.20005C24.0109 7.20005 23.7766 5.54536 23.0547 4.8188C22.1406 3.86255 21.1188 3.85786 20.65 3.80161C17.2938 3.55786 12.2547 3.55786 12.2547 3.55786H12.2453C12.2453 3.55786 7.20625 3.55786 3.85 3.80161C3.38125 3.85786 2.35938 3.86255 1.44531 4.8188C0.723438 5.54536 0.49375 7.20005 0.49375 7.20005C0.49375 7.20005 0.25 9.14536 0.25 11.086V12.9047C0.25 14.8454 0.489062 16.7907 0.489062 16.7907C0.489062 16.7907 0.723437 18.4454 1.44062 19.1719C2.35469 20.1282 3.55469 20.0954 4.08906 20.1985C6.01094 20.3813 12.25 20.4375 12.25 20.4375C12.25 20.4375 17.2938 20.4282 20.65 20.1891C21.1188 20.1329 22.1406 20.1282 23.0547 19.1719C23.7766 18.4454 24.0109 16.7907 24.0109 16.7907C24.0109 16.7907 24.25 14.85 24.25 12.9047V11.086C24.25 9.14536 24.0109 7.20005 24.0109 7.20005ZM9.77031 15.1125V8.36724L16.2531 11.7516L9.77031 15.1125Z" fill="#F8F6F2"/>
</g>
<defs>
<clipPath id="clip0_802_838">
<rect width="24" height="24" fill="white" transform="translate(0.25)"/>
</clipPath>
</defs>
</svg>
