<svg width="30" height="30" viewBox="0 0 30 30" fill="none" xmlns="http://www.w3.org/2000/svg">
<path d="M14.9946 2.8126C14.538 2.80671 14.1005 3.06916 13.906 3.51389L13.3283 4.83683L15.662 5.34769L16.053 4.45505C16.3126 3.86208 16.0417 3.17116 15.4487 2.91147C15.3006 2.84643 15.1468 2.81456 14.9946 2.8126ZM12.953 5.69559L11.63 6.49485L5.00254 21.5132L4.62076 25.3538L4.83774 25.4353L4.68943 26.9312C4.68849 26.9387 4.6876 26.9462 4.6876 26.9532C4.68572 27.0559 4.74796 27.135 4.82859 27.1702C4.91437 27.2077 5.02137 27.1955 5.09684 27.1107L6.14603 25.9287L6.37033 26.013L7.62735 24.5967C7.01798 24.3468 6.67012 23.9707 6.5159 23.7654C5.81934 22.8368 6.0049 21.5218 6.92881 20.821L6.92789 20.8192L10.1927 18.1697L11.165 17.9902L15.4936 8.184L15.1054 6.63675L12.953 5.69559ZM15.4634 11.7701L12.3203 17.7778L14.3556 17.4034L16.4063 17.9884L16.2773 18.5047L14.4279 18.2786L10.4948 19.066L7.45615 21.6038C6.9799 22.0008 6.88978 22.7017 7.26572 23.2032C7.42416 23.4146 7.90697 23.9063 8.96494 23.9063C9.45994 23.9063 10.3945 23.5913 11.7445 22.9688H14.7776C15.815 23.8773 18.8926 26.2501 22.7354 26.2501C24.4384 26.2501 26.0605 25.5985 26.6905 25.3126H29.5313V16.8751H28.6067C27.4428 16.8751 26.3134 16.6336 25.2513 16.1573L15.4634 11.7701ZM6.74021 14.1642L2.97739 16.3001L0.543003 22.7912L0.548497 22.794C0.54334 22.808 0.533511 22.8188 0.528355 22.8333C0.323511 23.4474 0.654954 24.1103 1.26902 24.3147C1.40167 24.3587 1.56464 24.3879 1.74418 24.3879C2.35261 24.3879 3.15738 24.0527 3.66129 22.8288C3.71754 22.6933 6.74021 14.1642 6.74021 14.1642ZM11.9486 23.9063C11.1424 24.272 10.5517 24.4965 10.1158 24.6278C10.4392 25.495 10.6785 26.1515 10.6925 26.1796C10.9175 26.6905 11.55 26.8404 12.1125 26.6154C12.675 26.3904 12.9985 25.9263 12.7735 25.2513C12.722 25.1013 12.544 24.5954 12.3002 23.9063H11.9486ZM13.3082 23.9063C13.6738 24.9095 13.9597 25.678 13.9738 25.7109C14.1988 26.2218 14.8313 26.3716 15.3938 26.1466C15.8578 25.9591 16.1583 25.6126 16.1161 25.1158C15.413 24.6751 14.8411 24.2438 14.438 23.9063H13.3082ZM8.67746 24.8255L7.32157 26.3536C7.60329 26.7225 8.14635 26.8127 8.63901 26.6154C9.20151 26.3904 9.5296 25.9263 9.3046 25.2513C9.28585 25.1997 9.23403 25.0502 9.15903 24.8393C9.07934 24.844 9.01375 24.8438 8.96219 24.8438C8.86094 24.8438 8.77215 24.8326 8.67746 24.8255Z" fill="#1F271B"/>
</svg>
