<svg width="30" height="30" viewBox="0 0 30 30" fill="none" xmlns="http://www.w3.org/2000/svg">
<path d="M8.90631 1.875V11.7188H13.1251V15L16.9529 11.7188H22.0313V1.875H8.90631ZM18.1312 4.39728L19.0549 5.32013L15.0001 9.375L12.1876 6.71265L12.9703 5.80353L15.0001 7.03125L18.1312 4.39728ZM7.50006 13.6139C5.94662 13.6139 4.68756 14.873 4.68756 16.4264V16.8283C4.68756 18.3817 5.89272 20.0427 7.50006 20.0427C9.1074 20.0427 10.3126 18.3817 10.3126 16.8283V16.4264C10.3126 14.873 9.0535 13.6139 7.50006 13.6139ZM22.5001 13.6139C20.9466 13.6139 19.6876 14.873 19.6876 16.4264V16.8283C19.6876 18.3817 20.8927 20.0427 22.5001 20.0427C24.1074 20.0427 25.3126 18.3817 25.3126 16.8283V16.4264C25.3126 14.873 24.0535 13.6139 22.5001 13.6139ZM7.49915 22.0312C5.45118 22.0312 3.65547 22.5141 2.65234 22.8506C2.13297 23.025 1.7489 23.4615 1.64343 23.9996L1.41455 25.1697C2.83533 26.9673 5.02932 28.125 7.49823 28.125C9.96807 28.125 12.1634 26.9664 13.5837 25.1678L13.3558 24.0005C13.2508 23.4638 12.8671 23.0264 12.3487 22.8525C11.346 22.5154 9.54852 22.0312 7.49915 22.0312ZM22.501 22.0312C20.4516 22.0312 18.655 22.515 17.6523 22.8516C17.1339 23.0259 16.7503 23.4629 16.6453 23.9996L16.4164 25.1678C17.8362 26.9669 20.032 28.125 22.5019 28.125C24.9708 28.125 27.1653 26.9673 28.5856 25.1697L28.3567 23.9996C28.2512 23.462 27.8672 23.0255 27.3478 22.8506C26.3447 22.5141 24.5489 22.0312 22.501 22.0312Z" fill="#1F271B"/>
</svg>
