<svg width="30" height="30" viewBox="0 0 30 30" fill="none" xmlns="http://www.w3.org/2000/svg">
<path d="M14.5313 21.5625H12.1013C11.9077 22.1076 11.3925 22.5 10.7813 22.5C10.0046 22.5 9.37504 21.8704 9.37504 21.0937C9.37504 20.317 10.0046 19.6875 10.7813 19.6875C11.3925 19.6875 11.9077 20.0798 12.1013 20.625H14.5313V12.1875H11.4291L10.4832 10.2951C10.4265 10.3022 10.3711 10.3125 10.3125 10.3125C9.53582 10.3125 8.90629 9.68294 8.90629 8.90622C8.90629 8.1295 9.53582 7.49997 10.3125 7.49997C11.0893 7.49997 11.7188 8.1295 11.7188 8.90622C11.7188 9.28497 11.5674 9.62763 11.3236 9.88028L12.0085 11.25H14.5313V3.24091C12.1936 1.94435 9.22082 3.84372 8.39536 5.59169C7.84692 5.91981 6.42192 6.79638 6.31879 8.53544C5.10004 9.45888 4.42036 10.4386 4.50004 13.4854C4.00411 14.0203 3.47629 14.6737 3.32629 15.4687H6.18004C6.37364 14.9236 6.88879 14.5312 7.50004 14.5312C8.27676 14.5312 8.90629 15.1608 8.90629 15.9375C8.90629 16.7142 8.27676 17.3437 7.50004 17.3437C6.88879 17.3437 6.37364 16.9514 6.18004 16.4062H3.33801C3.44442 16.92 3.71864 17.4811 4.24692 18.0979C3.79223 19.8464 4.67817 21.5058 5.92036 22.6073C6.32817 24.1495 8.20786 25.7386 9.78754 25.8558C10.8094 27.5133 13.1869 27.4458 14.5313 26.5092V21.5625ZM26.7188 16.5698C26.7188 14.3058 25.486 13.0167 25.486 13.0167C25.8849 9.67919 25.0632 7.99075 22.6697 6.56247H19.2188V8.05497C19.764 8.24856 20.1563 8.76372 20.1563 9.37497C20.1563 10.1517 19.5268 10.7812 18.75 10.7812C17.9733 10.7812 17.3438 10.1517 17.3438 9.37497C17.3438 8.76372 17.7361 8.24856 18.2813 8.05497V5.62497H21.8654C20.4436 3.69044 17.5041 2.05403 15.4688 3.21466V15.4687H19.1082L20.6424 14.7018C20.6354 14.6451 20.625 14.5898 20.625 14.5312C20.625 13.7545 21.2546 13.125 22.0313 13.125C22.808 13.125 23.4375 13.7545 23.4375 14.5312C23.4375 15.3079 22.808 15.9375 22.0313 15.9375C21.6525 15.9375 21.3099 15.7861 21.0572 15.5423L19.3299 16.4062H15.4688V26.5467C16.4939 27.2906 18.1107 27.3909 19.2188 26.8134V22.4142C18.6736 22.2206 18.2813 21.7054 18.2813 21.0942C18.2813 20.3175 18.9108 19.6879 19.6875 19.6879C20.4643 19.6879 21.0938 20.3175 21.0938 21.0942C21.0938 21.7054 20.7015 22.2206 20.1563 22.4142V25.9312C20.1708 25.9054 20.1896 25.8825 20.2032 25.8558C21.7782 25.7386 23.8313 24.2151 24.2391 22.6729C24.9282 21.3417 26.1938 19.8417 25.7391 18.0979C25.7391 18.0979 26.7188 17.9011 26.7188 16.5698Z" fill="#1F271B"/>
</svg>
