<svg width="30" height="30" viewBox="0 0 30 30" fill="none" xmlns="http://www.w3.org/2000/svg">
<path d="M4.6875 1.875V28.125H18.1522C18.9453 28.125 19.6971 27.7744 20.2075 27.1674L24.3613 22.2253C24.9753 21.4946 25.3125 20.57 25.3125 19.6152V1.875H4.6875ZM6.5625 3.75H23.4375V19.2188C23.4375 20.8908 23.3255 20.8031 18.75 22.9688C18.75 22.9688 19.6875 24.2039 19.6875 25.0406C19.6875 25.6101 19.2119 26.25 17.6697 26.25H6.5625V3.75ZM14.3207 5.625L14.3903 8.59406L11.8423 7.09534L11.2253 8.21594L13.8162 9.6167L11.2537 11.0724L11.8982 12.193L14.4324 10.6375V13.5938H15.6793L15.6088 10.6238L18.1439 12.1225L18.7747 11.0028L16.1829 9.60205L18.7601 8.14545L18.1018 7.03857L15.5804 8.59314V5.625H14.3207ZM9.375 15.9375V17.3438H20.625V15.9375H9.375ZM9.375 18.75V20.1562H18.75V18.75H9.375ZM9.375 21.5625V22.9688H15.4688V21.5625H9.375Z" fill="#1F271B"/>
</svg>
